<svg width="34" height="44" viewBox="0 0 34 44" fill="none" xmlns="http://www.w3.org/2000/svg">
<path d="M12.7143 42H21.2857H12.7143ZM2 16C2 12.287 3.58036 8.72601 6.3934 6.1005C9.20644 3.475 13.0218 2 17 2C20.9782 2 24.7936 3.475 27.6066 6.1005C30.4196 8.72601 32 12.287 32 16C32.0014 18.2541 31.4173 20.475 30.2977 22.4723C29.178 24.4696 27.5563 26.1838 25.5714 27.468L24.41 32.6C24.2562 33.5459 23.7443 34.4091 22.967 35.0329C22.1898 35.6567 21.1987 35.9998 20.1736 36H13.8264C12.8013 35.9998 11.8102 35.6567 11.033 35.0329C10.2557 34.4091 9.74377 33.5459 9.59 32.6L8.42857 27.49C6.44302 26.2013 4.82123 24.483 3.70176 22.4822C2.58229 20.4813 1.99841 18.2572 2 16V16Z" stroke="url(#paint0_linear)" stroke-width="3" stroke-linecap="round" stroke-linejoin="round"/>
<defs>
<linearGradient id="paint0_linear" x1="2" y1="22" x2="32.1577" y2="24.488" gradientUnits="userSpaceOnUse">
<stop stop-color="#FF3235"/>
<stop offset="1" stop-color="#F6621D"/>
</linearGradient>
</defs>
</svg>
