<svg width="40" height="40" viewBox="0 0 40 40" fill="white" 
<path d="M38.4216 28.3575H11.8694L13.2025 25.3378L35.3539 25.2932C36.103 25.2932 36.7451 24.6982 36.8788 23.875L39.9465 4.77997C40.0268 4.27916 39.9064 3.76348 39.6121 3.37176C39.4666 3.17898 39.2852 3.02369 39.0804 2.91666C38.8756 2.80963 38.6523 2.75343 38.426 2.75195L10.2463 2.64782L10.0056 1.38837C9.85397 0.5851 9.20299 0 8.46283 0H1.57396C1.15652 0 0.756177 0.18441 0.461002 0.512663C0.165828 0.840915 0 1.28612 0 1.75034C0 2.21456 0.165828 2.65977 0.461002 2.98802C0.756177 3.31627 1.15652 3.50068 1.57396 3.50068H7.1876L8.23988 9.06409L10.8305 23.0123L7.49526 29.0666C7.32206 29.3265 7.21774 29.6352 7.1941 29.9577C7.17046 30.2802 7.22845 30.6036 7.3615 30.8913C7.62903 31.4813 8.16854 31.8532 8.76602 31.8532H11.5662C10.9692 32.735 10.6468 33.8089 10.6476 34.9126C10.6476 37.7191 12.6987 40 15.2224 40C17.7461 40 19.7971 37.7191 19.7971 34.9126C19.7971 33.8069 19.4672 32.7309 18.8786 31.8532H26.0618C25.4648 32.735 25.1424 33.8089 25.1432 34.9126C25.1432 37.7191 27.1943 40 29.718 40C32.2417 40 34.2927 37.7191 34.2927 34.9126C34.2927 33.8069 33.9628 32.7309 33.3742 31.8532H38.426C39.291 31.8532 40 31.0698 40 30.1029C39.9974 29.6392 39.83 29.1954 39.5343 28.8684C39.2386 28.5414 38.8386 28.3578 38.4216 28.3575V28.3575ZM10.9018 6.09892L36.5756 6.19313L34.0609 21.852L13.8937 21.8917L10.9018 6.09892ZM15.2224 36.4795C14.4466 36.4795 13.8134 35.7754 13.8134 34.9126C13.8134 34.0498 14.4466 33.3457 15.2224 33.3457C15.9982 33.3457 16.6314 34.0498 16.6314 34.9126C16.6314 35.3282 16.4829 35.7267 16.2187 36.0206C15.9545 36.3144 15.5961 36.4795 15.2224 36.4795V36.4795ZM29.718 36.4795C28.9421 36.4795 28.309 35.7754 28.309 34.9126C28.309 34.0498 28.9421 33.3457 29.718 33.3457C30.4938 33.3457 31.127 34.0498 31.127 34.9126C31.127 35.3282 30.9785 35.7267 30.7143 36.0206C30.45 36.3144 30.0917 36.4795 29.718 36.4795V36.4795Z" fill="white"/>
<defs>
<linearGradient id="paint0_linear" x1="8.19564e-09" y1="20" x2="40" y2="24.4" gradientUnits="userSpaceOnUse">
<stop stop-color="#FF3235"/>
<stop offset="1" stop-color="#F6621D"/>
</linearGradient>
</defs>
</svg>
