<svg viewBox="0 0 50 50" fill="none" xmlns="http://www.w3.org/2000/svg">
<path d="M10.3755 0H39.6245L50 14.6658L25 50L0 14.6658L10.3755 0ZM21.4422 2.63158L16.9272 13.1579H33.0727L28.5578 2.63158H21.4422V2.63158ZM16.563 15.7895L25 41.4842L33.4344 15.7895H16.5656H16.563ZM4.31291 13.1579H14.0396L18.5546 2.63158H11.7581L4.31291 13.1579ZM4.04169 15.7895L22.1894 41.4395L13.7683 15.7895H4.04169V15.7895ZM45.6871 13.1579L38.2419 2.63158H31.4454L35.9604 13.1579H45.6871ZM45.9583 15.7895H36.2316L27.8106 41.4395L45.9583 15.7895Z" fill="url(#paint0_linear)"/>
<defs>
<linearGradient id="paint0_linear" x1="1.02446e-08" y1="25" x2="50" y2="30.5" gradientUnits="userSpaceOnUse">
<stop stop-color="#FF3235"/>
<stop offset="1" stop-color="#F6621D"/>
</linearGradient>
</defs>
</svg>
