<svg width="40" height="40" viewBox="0 0 40 40" fill="none" xmlns="http://www.w3.org/2000/svg">
<path d="M21.4422 0.391346C21.0048 0.135082 20.5069 0 19.9999 0C19.4929 0 18.9951 0.135082 18.5576 0.391346L1.40996 10.4336C0.980687 10.6859 0.624913 11.0461 0.377999 11.4785C0.131084 11.9109 0.00162603 12.4003 0.00249149 12.8982C0.00335695 13.3961 0.134516 13.885 0.382932 14.3165C0.631348 14.748 0.988373 15.107 1.41852 15.3578L18.5633 25.3487C18.9994 25.6029 19.4952 25.7368 19.9999 25.7368C20.5047 25.7368 21.0004 25.6029 21.4365 25.3487L38.5813 15.3578C39.0118 15.1067 39.3691 14.7472 39.6174 14.3151C39.8658 13.8831 39.9966 13.3935 39.9969 12.8951C39.9972 12.3968 39.8669 11.907 39.6191 11.4746C39.3712 11.0423 39.0144 10.6824 38.5842 10.4308L21.4393 0.388492L21.4422 0.391346ZM18.5576 3.69789C18.9947 3.44216 19.4921 3.30738 19.9985 3.30738C20.5049 3.30738 21.0022 3.44216 21.4393 3.69789L37.1433 12.8929L21.4365 22.0479C21.0004 22.302 20.5047 22.4359 19.9999 22.4359C19.4952 22.4359 18.9994 22.302 18.5633 22.0479L2.85368 12.8929L18.5576 3.69789Z" fill="url(#paint0_linear)"/>
<path d="M0.230256 19.0298L18.6019 29.3659C19.0288 29.6059 19.5103 29.7319 20 29.7319C20.4897 29.7319 20.9712 29.6059 21.3981 29.3659L39.7669 19.0298C40.043 19.6701 40.075 20.3894 39.8568 21.0517C39.6386 21.714 39.1854 22.2735 38.5828 22.6245L21.4352 32.6154C20.9994 32.869 20.5042 33.0026 20 33.0026C19.4958 33.0026 19.0006 32.869 18.5648 32.6154L1.41718 22.6245C0.81457 22.2735 0.361371 21.714 0.143208 21.0517C-0.0749551 20.3894 -0.0429736 19.6701 0.23311 19.0298H0.230256Z" fill="url(#paint1_linear)"/>
<path d="M0.230256 26.0273L18.6019 36.3606C19.0288 36.6006 19.5103 36.7266 20 36.7266C20.4897 36.7266 20.9712 36.6006 21.3981 36.3606L39.7669 26.0273C40.043 26.6677 40.075 27.387 39.8568 28.0493C39.6386 28.7116 39.1854 29.2711 38.5828 29.622L21.4352 39.613C20.9994 39.8666 20.5042 40.0002 20 40.0002C19.4958 40.0002 19.0006 39.8666 18.5648 39.613L1.41718 29.622C0.81457 29.2711 0.361371 28.7116 0.143208 28.0493C-0.0749551 27.387 -0.0429736 26.6677 0.23311 26.0273H0.230256Z" fill="url(#paint2_linear)"/>
<defs>
<linearGradient id="paint0_linear" x1="0.00248719" y1="12.8684" x2="39.3317" y2="19.5912" gradientUnits="userSpaceOnUse">
<stop stop-color="#FF3235"/>
<stop offset="1" stop-color="#F6621D"/>
</linearGradient>
<linearGradient id="paint1_linear" x1="8.19564e-09" y1="26.0162" x2="36.8318" y2="37.6144" gradientUnits="userSpaceOnUse">
<stop stop-color="#FF3235"/>
<stop offset="1" stop-color="#F6621D"/>
</linearGradient>
<linearGradient id="paint2_linear" x1="8.19564e-09" y1="33.0138" x2="36.8318" y2="44.612" gradientUnits="userSpaceOnUse">
<stop stop-color="#FF3235"/>
<stop offset="1" stop-color="#F6621D"/>
</linearGradient>
</defs>
</svg>
