<svg width="40" height="42" viewBox="0 0 40 42" fill="none" xmlns="http://www.w3.org/2000/svg">
<path d="M37.1 3V39H31.2999V3H37.1ZM31.2999 0C30.5307 0 29.7931 0.31607 29.2492 0.878679C28.7054 1.44129 28.3998 2.20435 28.3998 3V39C28.3998 39.7957 28.7054 40.5587 29.2492 41.1213C29.7931 41.6839 30.5307 42 31.2999 42H37.1C37.8691 42 38.6067 41.6839 39.1506 41.1213C39.6945 40.5587 40 39.7957 40 39V3C40 2.20435 39.6945 1.44129 39.1506 0.878679C38.6067 0.31607 37.8691 0 37.1 0H31.2999Z" fill="url(#paint0_linear)"/>
<path fill-rule="evenodd" clip-rule="evenodd" d="M-1.8438e-05 18C-1.8438e-05 17.2044 0.305521 16.4413 0.849385 15.8787C1.39325 15.3161 2.13089 15 2.90002 15H8.70011C9.46925 15 10.2069 15.3161 10.7507 15.8787C11.2946 16.4413 11.6002 17.2044 11.6002 18V39C11.6002 39.7957 11.2946 40.5587 10.7507 41.1213C10.2069 41.6839 9.46925 42 8.70011 42H2.90002C2.13089 42 1.39325 41.6839 0.849385 41.1213C0.305521 40.5587 -1.8438e-05 39.7957 -1.8438e-05 39V18ZM2.90002 18.3409L8.70011 18.4091V39.4091H2.90002V18.3409Z" fill="url(#paint1_linear)"/>
<path fill-rule="evenodd" clip-rule="evenodd" d="M14.383 30C14.383 29.2043 14.6885 28.4413 15.2324 27.8787C15.7762 27.3161 16.5139 27 17.283 27H23.0831C23.8522 27 24.5899 27.3161 25.1337 27.8787C25.6776 28.4413 25.9831 29.2043 25.9831 30V39C25.9831 39.7957 25.6776 40.5587 25.1337 41.1213C24.5899 41.6839 23.8522 42 23.0831 42H17.283C16.5139 42 15.7762 41.6839 15.2324 41.1213C14.6885 40.5587 14.383 39.7957 14.383 39V30ZM17.283 30H23.0831V39H17.283V30Z" fill="url(#paint2_linear)"/>
<defs>
<linearGradient id="paint0_linear" x1="8.19564e-09" y1="21" x2="40.0445" y2="25.1951" gradientUnits="userSpaceOnUse">
<stop stop-color="#FF3235"/>
<stop offset="1" stop-color="#F6621D"/>
</linearGradient>
<linearGradient id="paint1_linear" x1="8.19564e-09" y1="21" x2="40.0445" y2="25.1951" gradientUnits="userSpaceOnUse">
<stop stop-color="#FF3235"/>
<stop offset="1" stop-color="#F6621D"/>
</linearGradient>
<linearGradient id="paint2_linear" x1="8.19564e-09" y1="21" x2="40.0445" y2="25.1951" gradientUnits="userSpaceOnUse">
<stop stop-color="#FF3235"/>
<stop offset="1" stop-color="#F6621D"/>
</linearGradient>
</defs>
</svg>
