<svg width="41" height="42" viewBox="0 0 41 42" fill="none" xmlns="http://www.w3.org/2000/svg">
<path d="M41 12.5973C40.9996 12.2225 40.9013 11.8547 40.7153 11.5319C40.5293 11.2091 40.2623 10.9433 39.9422 10.7619L21.4467 0.261471C21.1428 0.0899491 20.8014 0 20.4545 0C20.1075 0 19.7662 0.0899491 19.4622 0.261471L1.05696 10.6779C0.737218 10.8592 0.470627 11.1249 0.28479 11.4473C0.0989539 11.7696 0.000630278 12.1371 3.02012e-06 12.5115C-0.000624238 12.8859 0.0964672 13.2536 0.281222 13.5767C0.465977 13.8997 0.731678 14.1663 1.05081 14.3488L19.5463 24.9332C19.8508 25.1084 20.1941 25.2007 20.5434 25.201C20.8926 25.2014 21.2361 25.1099 21.541 24.9353L39.9463 14.4349C40.266 14.2528 40.5323 13.9863 40.7176 13.6632C40.9029 13.3401 41.0004 12.9721 41 12.5973ZM20.5467 20.6931L6.27226 12.5259L20.4524 4.49943L34.7289 12.6036L20.5467 20.6931Z" fill="url(#paint0_linear)"/>
<path d="M37.9556 19.1641L20.4995 29.0974L3.04337 19.1641L1.05278 22.835L19.5032 33.3354C19.8076 33.5086 20.1502 33.5995 20.4985 33.5995C20.8467 33.5995 21.1893 33.5086 21.4938 33.3354L39.9441 22.835L37.9556 19.1641Z" fill="url(#paint1_linear)"/>
<path d="M37.9556 27.5645L20.4995 37.4978L3.04337 27.5645L1.05278 31.2354L19.5032 41.7358C19.8076 41.909 20.1502 41.9999 20.4985 41.9999C20.8467 41.9999 21.1893 41.909 21.4938 41.7358L39.9441 31.2354L37.9556 27.5645Z" fill="url(#paint2_linear)"/>
<defs>
<linearGradient id="paint0_linear" x1="8.40053e-09" y1="12.6005" x2="40.2083" y2="19.7962" gradientUnits="userSpaceOnUse">
<stop stop-color="#FF3235"/>
<stop offset="1" stop-color="#F6621D"/>
</linearGradient>
<linearGradient id="paint1_linear" x1="1.05278" y1="26.3818" x2="37.2368" y2="37.1052" gradientUnits="userSpaceOnUse">
<stop stop-color="#FF3235"/>
<stop offset="1" stop-color="#F6621D"/>
</linearGradient>
<linearGradient id="paint2_linear" x1="1.05278" y1="34.7822" x2="37.2368" y2="45.5056" gradientUnits="userSpaceOnUse">
<stop stop-color="#FF3235"/>
<stop offset="1" stop-color="#F6621D"/>
</linearGradient>
</defs>
</svg>
