<svg width="38" height="40" viewBox="0 0 38 40" fill="none" xmlns="http://www.w3.org/2000/svg">
<path d="M0 20C0 14.6957 2.00178 9.60859 5.56497 5.85786C9.12816 2.10714 13.9609 0 19 0C24.0391 0 28.8718 2.10714 32.435 5.85786C35.9982 9.60859 38 14.6957 38 20C38 25.3043 35.9982 30.3914 32.435 34.1421C28.8718 37.8929 24.0391 40 19 40C13.9609 40 9.12816 37.8929 5.56497 34.1421C2.00178 30.3914 0 25.3043 0 20ZM17.8125 2.6925C16.2213 3.2025 14.6419 4.7425 13.3309 7.33C12.8989 8.19024 12.5274 9.08263 12.2194 10H17.8125V2.6925ZM9.71375 10C10.1096 8.67204 10.6183 7.38434 11.2338 6.1525C11.6444 5.33514 12.1187 4.55497 12.6516 3.82C9.70901 5.10457 7.17726 7.24905 5.35563 10H9.71375ZM8.3315 18.75C8.40275 16.5575 8.65925 14.455 9.0725 12.5H3.97575C3.09016 14.4626 2.56171 16.5825 2.41775 18.75H8.3315ZM11.5116 12.5C11.0445 14.5495 10.7755 16.6435 10.7089 18.75H17.8125V12.5H11.5116ZM20.1875 12.5V18.75H27.2887C27.2229 16.6436 26.9548 14.5496 26.4884 12.5H20.1875ZM10.7113 21.25C10.7771 23.3564 11.0453 25.4504 11.5116 27.5H17.8125V21.25H10.7113ZM20.1875 21.25V27.5H26.4884C26.9325 25.5875 27.2151 23.48 27.2911 21.25H20.1875ZM12.2194 30C12.5471 30.965 12.92 31.86 13.3309 32.67C14.6419 35.2575 16.2236 36.795 17.8125 37.3075V30H12.2194ZM12.6516 36.18C12.1186 35.4451 11.6444 34.6649 11.2338 33.8475C10.6183 32.6157 10.1096 31.328 9.71375 30H5.35563C7.17717 32.751 9.70894 34.8956 12.6516 36.18ZM9.0725 27.5C8.64302 25.4452 8.39496 23.3529 8.3315 21.25H2.41775C2.565 23.475 3.10888 25.5825 3.97575 27.5H9.0725ZM25.3484 36.18C28.2911 34.8956 30.8228 32.751 32.6444 30H28.2862C27.8904 31.3279 27.3816 32.6156 26.7663 33.8475C26.3557 34.6649 25.8815 35.4451 25.3484 36.18ZM20.1875 30V37.3075C21.7787 36.7975 23.3581 35.2575 24.6691 32.67C25.08 31.86 25.4529 30.965 25.7806 30H20.1875ZM28.9275 27.5H34.0243C34.8911 25.5825 35.435 23.475 35.5823 21.25H29.6685C29.6051 23.3529 29.357 25.4452 28.9275 27.5ZM35.5823 18.75C35.4382 16.5825 34.9098 14.4626 34.0243 12.5H28.9275C29.3408 14.455 29.5972 16.5575 29.6685 18.75H35.5823ZM26.7663 6.1525C27.3529 7.3125 27.8635 8.6025 28.2862 10H32.6444C30.8228 7.24896 28.2911 5.10445 25.3484 3.82C25.8661 4.53 26.3411 5.315 26.7663 6.1525ZM25.7806 10C25.4726 9.08261 25.1011 8.19022 24.6691 7.33C23.3581 4.7425 21.7787 3.205 20.1875 2.6925V10H25.7806Z" fill="url(#paint0_linear)"/>
<defs>
<linearGradient id="paint0_linear" x1="7.78586e-09" y1="20" x2="38.0443" y2="23.9756" gradientUnits="userSpaceOnUse">
<stop stop-color="#FF3235"/>
<stop offset="1" stop-color="#F6621D"/>
</linearGradient>
</defs>
</svg>
